<?xml version="1.0" encoding="UTF-8" standalone="no"?>
<!-- Created with Inkscape (http://www.inkscape.org/) -->

<svg
   width="100"
   height="100"
   viewBox="0 0 26.458332 26.458333"
   version="1.1"
   id="svg5"
   xml:space="preserve"
   inkscape:version="1.2.2 (b0a8486541, 2022-12-01)"
   sodipodi:docname="save-icon.svg"
   xmlns:inkscape="http://www.inkscape.org/namespaces/inkscape"
   xmlns:sodipodi="http://sodipodi.sourceforge.net/DTD/sodipodi-0.dtd"
   xmlns="http://www.w3.org/2000/svg"
   xmlns:svg="http://www.w3.org/2000/svg"><sodipodi:namedview
     id="namedview7"
     pagecolor="#ffffff"
     bordercolor="#000000"
     borderopacity="0.25"
     inkscape:showpageshadow="2"
     inkscape:pageopacity="0.0"
     inkscape:pagecheckerboard="0"
     inkscape:deskcolor="#d1d1d1"
     inkscape:document-units="mm"
     showgrid="false"
     inkscape:zoom="2.587745"
     inkscape:cx="74.389093"
     inkscape:cy="101.43967"
     inkscape:window-width="1434"
     inkscape:window-height="1229"
     inkscape:window-x="412"
     inkscape:window-y="179"
     inkscape:window-maximized="0"
     inkscape:current-layer="layer1" /><defs
     id="defs2" /><g
     inkscape:label="Layer 1"
     inkscape:groupmode="layer"
     id="layer1"><path
       style="fill:#808080;stroke-width:0.112073"
       d="m 4.5729748,23.579896 c -0.672856,-0.365087 -0.645828,0.06845 -0.645828,-10.359409 0,-10.4683874 -0.03,-10.0034964 0.668768,-10.3648414 0.284235,-0.146983 1.342838,-0.170006 7.8169362,-0.170006 h 7.488179 l 1.315104,1.318539 1.315104,1.318539 v 8.7175464 c 0,9.56723 0.02675,9.185396 -0.668769,9.545063 -0.489751,0.253261 -16.8221812,0.24813 -17.2894942,-0.0054 z m 2.268066,-5.411631 v -4.91463 l 0.256044,-0.380811 c 0.146297,-0.217585 0.422513,-0.438146 0.644419,-0.514576 0.278336,-0.09587 1.880801,-0.135508 5.6557982,-0.139917 5.807888,-0.0068 5.742567,-0.0141 6.268112,0.70205 0.225235,0.306924 0.233042,0.462142 0.26352,5.239405 l 0.03141,4.923111 h 0.744278 c 1.274398,0 1.154182,0.926708 1.154182,-8.897229 V 5.6593966 l -1.146747,-1.15066 -1.146745,-1.15066 h -0.64642 -0.646422 v 2.646897 2.646896 l -0.435106,0.435107 -0.435107,0.4351059 H 12.232076 7.0618948 l -0.418628,-0.3834509 -0.418627,-0.38345 -0.03368,-2.698553 -0.03368,-2.698552 h -0.573897 c -1.078189,0 -0.9838,-0.944365 -0.9838,9.8429374 0,8.656502 0.01597,9.489623 0.185479,9.676931 0.151462,0.167364 0.357006,0.204952 1.120728,0.204952 h 0.93525 z m 12.4154902,0.04338 c -0.02906,-4.501673 -0.04662,-4.886433 -0.231495,-5.071296 -0.18553,-0.185519 -0.588909,-0.2023 -5.556565,-0.231161 -5.2955662,-0.03077 -5.3599172,-0.02844 -5.6557532,0.204262 l -0.29924,0.235382 v 4.867034 4.867035 h 5.8872472 5.887247 z M 8.8594078,20.898749 c -0.112718,-0.135816 -0.112718,-0.202948 0,-0.338764 0.121864,-0.146837 0.731555,-0.165484 4.5806912,-0.140091 l 4.440116,0.02929 v 0.280182 0.280182 l -4.440116,0.02929 c -3.8491362,0.02539 -4.4588272,0.0067 -4.5806912,-0.140091 z m 0.0703,-2.665959 c -0.123255,-0.09013 -0.168027,-0.214979 -0.121019,-0.337479 0.06936,-0.180739 0.391292,-0.19237 4.5715552,-0.165153 4.299809,0.028 4.498724,0.03852 4.537503,0.239995 0.02231,0.115894 -0.02745,0.253812 -0.110561,0.306484 -0.08311,0.05267 -2.070532,0.09654 -4.416483,0.09749 -3.284635,0.0013 -4.3103462,-0.03118 -4.4609952,-0.141332 z m -0.110157,-2.822379 c -0.03506,-0.09137 0.01336,-0.243235 0.107603,-0.337479 0.147833,-0.147833 0.758654,-0.171117 4.4501342,-0.169637 2.353329,8.97e-4 4.346784,0.04481 4.429898,0.09748 0.08312,0.05267 0.132868,0.19059 0.110561,0.306485 -0.03878,0.201479 -0.237694,0.211999 -4.537503,0.239995 -3.8884792,0.02532 -4.5055702,0.0068 -4.5606932,-0.136848 z M 17.425568,8.6005626 c 0.145229,-0.207343 0.174464,-0.66746 0.174464,-2.745784 v -2.496702 h -0.333849 -0.33385 l -0.03039,2.213438 -0.03039,2.213439 -1.672559,0.03113 c -1.262936,0.0235 -1.694812,-0.0039 -1.76343,-0.112073 -0.04998,-0.07876 -0.09165,-1.088813 -0.09259,-2.244564 l -0.0017,-2.101366 H 10.091153 6.8410408 v 2.496702 c 0,2.078324 0.02923,2.538441 0.174464,2.745784 l 0.174464,0.249083 h 5.0305682 5.030567 z m -1.17041,-3.337248 v -1.905238 h -1.120727 -1.120729 v 1.905238 1.905238 h 1.120729 1.120728 z"
       id="path293" /></g></svg>
