<?xml version="1.0" encoding="UTF-8" standalone="no"?>
<!-- Created with Inkscape (http://www.inkscape.org/) -->

<svg
   width="100"
   height="100"
   viewBox="0 0 26.458332 26.458333"
   version="1.1"
   id="svg5"
   xml:space="preserve"
   inkscape:version="1.2.2 (b0a8486541, 2022-12-01)"
   sodipodi:docname="sidebar-icon.svg"
   xmlns:inkscape="http://www.inkscape.org/namespaces/inkscape"
   xmlns:sodipodi="http://sodipodi.sourceforge.net/DTD/sodipodi-0.dtd"
   xmlns="http://www.w3.org/2000/svg"
   xmlns:svg="http://www.w3.org/2000/svg"><sodipodi:namedview
     id="namedview7"
     pagecolor="#ffffff"
     bordercolor="#000000"
     borderopacity="0.25"
     inkscape:showpageshadow="2"
     inkscape:pageopacity="0.0"
     inkscape:pagecheckerboard="0"
     inkscape:deskcolor="#d1d1d1"
     inkscape:document-units="mm"
     showgrid="false"
     inkscape:zoom="5.6568543"
     inkscape:cx="50.204581"
     inkscape:cy="75.92559"
     inkscape:window-width="1434"
     inkscape:window-height="1229"
     inkscape:window-x="3075"
     inkscape:window-y="93"
     inkscape:window-maximized="0"
     inkscape:current-layer="g695" /><defs
     id="defs2" /><g
     inkscape:label="Layer 1"
     inkscape:groupmode="layer"
     id="layer1"><rect
       style="fill:#00ff00;stroke:none;stroke-width:0.269719"
       id="rect184"
       width="4"
       height="4"
       x="-17.067432"
       y="-2.3927615" /><rect
       style="fill:#00ff00;stroke:none;stroke-width:0.269719"
       id="rect184-6"
       width="4"
       height="4"
       x="-17.395466"
       y="16.71977" /><g
       id="g695"
       style="fill:#cccccc;fill-opacity:1"
       transform="matrix(0.81264106,0,0,0.81264106,2.4786024,2.8849229)"><path
         id="rect184-5"
         style="fill:#cccccc;fill-opacity:1;stroke:none;stroke-width:0.501774"
         d="M 4.0002454 4.0000685 A 1.5000472 1.5000472 0 0 0 2.5001402 5.5001736 A 1.5000472 1.5000472 0 0 0 4.0002454 7.0002788 L 22.458089 7.0002788 A 1.5000472 1.5000472 0 0 0 23.958194 5.5001736 A 1.5000472 1.5000472 0 0 0 22.458089 4.0000685 L 4.0002454 4.0000685 z " /><path
         id="rect184-5-9"
         style="fill:#cccccc;fill-opacity:1;stroke:none;stroke-width:0.501774"
         d="m 4.0002451,11.229062 a 1.5000472,1.5000472 0 0 0 -1.5001052,1.500105 1.5000472,1.5000472 0 0 0 1.5001052,1.500105 H 22.458089 a 1.5000472,1.5000472 0 0 0 1.500105,-1.500105 1.5000472,1.5000472 0 0 0 -1.500105,-1.500105 z" /><path
         id="rect184-5-9-1"
         style="fill:#cccccc;fill-opacity:1;stroke:none;stroke-width:0.501774"
         d="m 4.0004903,18.458229 a 1.5000472,1.5000472 0 0 0 -1.5001052,1.500105 1.5000472,1.5000472 0 0 0 1.5001052,1.500105 H 22.458334 a 1.5000472,1.5000472 0 0 0 1.500105,-1.500105 1.5000472,1.5000472 0 0 0 -1.500105,-1.500105 z" /></g></g></svg>
